<svg width="25" height="25" viewBox="0 0 25 25" fill="none" xmlns="http://www.w3.org/2000/svg">
<path d="M12.5001 0.166672C14.1356 0.166672 15.7041 0.816372 16.8606 1.97285C18.017 3.12932 18.6667 4.69784 18.6667 6.33334C18.6667 7.96884 18.017 9.53735 16.8606 10.6938C15.7041 11.8503 14.1356 12.5 12.5001 12.5C10.8646 12.5 9.29606 11.8503 8.13959 10.6938C6.98311 9.53735 6.33341 7.96884 6.33341 6.33334C6.33341 4.69784 6.98311 3.12932 8.13959 1.97285C9.29606 0.816372 10.8646 0.166672 12.5001 0.166672ZM12.5001 3.25C11.6823 3.25 10.8981 3.57485 10.3198 4.15309C9.7416 4.73133 9.41675 5.51559 9.41675 6.33334C9.41675 7.15109 9.7416 7.93534 10.3198 8.51358C10.8981 9.09182 11.6823 9.41667 12.5001 9.41667C13.3178 9.41667 14.1021 9.09182 14.6803 8.51358C15.2586 7.93534 15.5834 7.15109 15.5834 6.33334C15.5834 5.51559 15.2586 4.73133 14.6803 4.15309C14.1021 3.57485 13.3178 3.25 12.5001 3.25ZM12.5001 14.0417C16.6163 14.0417 24.8334 16.0921 24.8334 20.2083V24.8333H0.166748V20.2083C0.166748 16.0921 8.38383 14.0417 12.5001 14.0417ZM12.5001 16.9708C7.92133 16.9708 3.09591 19.2217 3.09591 20.2083V21.9042H21.9042V20.2083C21.9042 19.2217 17.0788 16.9708 12.5001 16.9708Z" fill="black"/>
</svg>
