<svg width="33" height="34" viewBox="0 0 33 34" fill="none" xmlns="http://www.w3.org/2000/svg">
<g clip-path="url(#clip0_602_1448)">
<path d="M20.6667 30.5185C19.9303 30.5185 19.3333 29.905 19.3333 29.1481C19.3333 28.3913 19.9303 27.7778 20.6667 27.7778C21.403 27.7778 22 28.3913 22 29.1481C22 29.905 21.403 30.5185 20.6667 30.5185Z" stroke="#17183B" stroke-width="2" stroke-linecap="round" stroke-linejoin="round"/>
<path d="M5.99967 30.5185C5.2633 30.5185 4.66634 29.905 4.66634 29.1481C4.66634 28.3913 5.2633 27.7778 5.99967 27.7778C6.73605 27.7778 7.33301 28.3913 7.33301 29.1481C7.33301 29.905 6.73605 30.5185 5.99967 30.5185Z" stroke="#17183B" stroke-width="2" stroke-linecap="round" stroke-linejoin="round"/>
<path d="M31.333 1.74074H25.9997L22.4263 20.09C22.3044 20.7209 21.9705 21.2876 21.4829 21.691C20.9954 22.0944 20.3854 22.3086 19.7597 22.2963H6.79968C6.17394 22.3086 5.56392 22.0944 5.0764 21.691C4.58889 21.2876 4.25494 20.7209 4.13301 20.09L1.99968 8.59259H24.6663" stroke="#17183B" stroke-width="2" stroke-linecap="round" stroke-linejoin="round"/>
</g>
<defs>
<clipPath id="clip0_602_1448">
<rect width="32" height="32.8889" fill="white" transform="matrix(-1 0 0 1 32.6665 0.370369)"/>
</clipPath>
</defs>
</svg>
